<?xml version="1.0" encoding="iso-8859-1"?>
<!-- Generator: Adobe Illustrator 19.0.0, SVG Export Plug-In . SVG Version: 6.00 Build 0)  -->
<svg version="1.1" id="Layer_1" xmlns="http://www.w3.org/2000/svg" xmlns:xlink="http://www.w3.org/1999/xlink" x="0px" y="0px"
	 viewBox="0 0 512.002 512.002" style="enable-background:new 0 0 512.002 512.002;" xml:space="preserve">
<g>
	<g>
		<path style="fill:#603B23;" d="M136.526,512.002c-1.28,0-2.586-0.29-3.806-0.896c-4.215-2.116-5.931-7.236-3.823-11.452
			l32.478-64.939l-24.303-64.785c-1.05-2.816-0.546-5.982,1.331-8.329l34.133-42.667c2.944-3.678,8.329-4.267,11.989-1.331
			c3.686,2.944,4.284,8.311,1.34,11.998l-31.104,38.878l23.893,63.727c0.836,2.219,0.708,4.693-0.35,6.81l-34.133,68.267
			C142.67,510.278,139.657,512.002,136.526,512.002"/>
		<path style="fill:#603B23;" d="M76.792,401.068c-1.28,0-2.586-0.29-3.806-0.896c-4.215-2.116-5.931-7.236-3.823-11.452
			l59.733-119.467c0.725-1.451,1.852-2.671,3.243-3.499l42.667-25.6c4.045-2.432,9.284-1.118,11.708,2.918
			c2.432,4.045,1.118,9.284-2.918,11.708l-40.542,24.329L84.438,396.349C82.936,399.345,79.924,401.068,76.792,401.068"/>
		<path style="fill:#603B23;" d="M196.276,196.268c-0.555,0-1.118-0.051-1.681-0.171l-42.667-8.533
			c-2.219-0.435-4.173-1.749-5.427-3.627l-32.171-48.265l-39.202-7.842c-2.219-0.435-4.173-1.749-5.427-3.627l-17.067-25.6
			c-2.611-3.925-1.553-9.225,2.364-11.836c3.917-2.628,9.225-1.562,11.836,2.364l15.104,22.665l39.202,7.842
			c2.219,0.435,4.173,1.749,5.427,3.627l32.171,48.265l39.202,7.842c4.625,0.922,7.62,5.419,6.69,10.035
			C203.828,193.461,200.261,196.268,196.276,196.268"/>
		<path style="fill:#603B23;" d="M375.476,512.002c-3.132,0-6.144-1.724-7.646-4.719l-34.133-68.267
			c-1.058-2.116-1.186-4.591-0.35-6.81l23.893-63.727l-31.104-38.878c-2.944-3.686-2.347-9.054,1.34-11.998
			c3.669-2.935,9.045-2.347,11.989,1.331l34.133,42.667c1.877,2.347,2.381,5.513,1.331,8.329l-24.303,64.785l32.478,64.939
			c2.108,4.215,0.393,9.335-3.823,11.452C378.062,511.712,376.756,512.002,375.476,512.002"/>
		<path style="fill:#603B23;" d="M435.209,401.068c-3.132,0-6.144-1.724-7.646-4.719L368.948,279.11l-40.542-24.329
			c-4.036-2.423-5.35-7.663-2.918-11.708c2.423-4.045,7.654-5.35,11.708-2.918l42.667,25.6c1.391,0.828,2.517,2.048,3.243,3.499
			l59.733,119.467c2.108,4.215,0.393,9.335-3.823,11.452C437.795,400.778,436.489,401.068,435.209,401.068"/>
		<path style="fill:#603B23;" d="M315.726,196.268c-3.985,0-7.552-2.807-8.354-6.861c-0.93-4.617,2.065-9.114,6.69-10.035
			l39.202-7.842l32.171-48.265c1.254-1.877,3.209-3.191,5.427-3.627l39.202-7.842l15.104-22.665
			c2.611-3.925,7.91-4.992,11.836-2.364c3.917,2.611,4.975,7.91,2.364,11.836l-17.067,25.6c-1.254,1.877-3.209,3.191-5.427,3.627
			l-39.202,7.842l-32.171,48.265c-1.254,1.877-3.209,3.191-5.427,3.627l-42.667,8.533
			C316.844,196.217,316.28,196.268,315.726,196.268"/>
		<path style="fill:#603B23;" d="M238.938,136.535c-2.543,0-5.06-1.135-6.741-3.294l-58.539-75.273l-80.179-40.09l-39.108,15.65
			c-4.395,1.732-9.344-0.384-11.093-4.753c-1.749-4.386,0.375-9.344,4.753-11.102L90.697,0.607c2.27-0.896,4.804-0.802,6.989,0.29
			l85.333,42.667c1.135,0.572,2.133,1.391,2.918,2.398l59.733,76.8c2.893,3.721,2.219,9.079-1.502,11.981
			C242.616,135.946,240.773,136.535,238.938,136.535"/>
		<path style="fill:#603B23;" d="M273.063,136.535c-1.835,0-3.678-0.589-5.231-1.792c-3.721-2.901-4.395-8.26-1.502-11.981
			l59.733-76.8c0.785-1.007,1.783-1.826,2.918-2.398l85.333-42.667c2.202-1.092,4.736-1.186,6.989-0.29l42.667,17.067
			c4.378,1.758,6.502,6.716,4.753,11.102c-1.749,4.369-6.699,6.494-11.093,4.753l-39.108-15.65l-80.179,40.09l-58.539,75.273
			C278.124,135.4,275.606,136.535,273.063,136.535"/>
	</g>
	<path style="fill:#805333;" d="M332.801,298.668c0,94.259-34.381,170.667-76.8,170.667s-76.8-76.407-76.8-170.667
		s34.381-170.667,76.8-170.667S332.801,204.409,332.801,298.668"/>
	<g>
		<path style="fill:#B27C36;" d="M181.672,340.948c2.441,21.188,6.63,40.755,12.262,57.933
			c16.546,6.656,38.238,10.718,62.063,10.718c23.834,0,45.517-4.062,62.072-10.718c5.632-17.178,9.822-36.745,12.262-57.933
			c-17.161-10.129-44.032-16.683-74.334-16.683C225.704,324.265,198.833,330.819,181.672,340.948"/>
		<path style="fill:#B27C36;" d="M330.33,256.389c-2.441-21.188-6.63-40.755-12.262-57.933
			c-16.546-6.656-38.238-10.718-62.063-10.718c-23.834,0-45.517,4.07-62.071,10.718c-5.632,17.178-9.822,36.745-12.262,57.933
			c17.161,10.129,44.032,16.683,74.334,16.683C286.298,273.072,313.169,266.518,330.33,256.389"/>
	</g>
</g>
<g>
</g>
<g>
</g>
<g>
</g>
<g>
</g>
<g>
</g>
<g>
</g>
<g>
</g>
<g>
</g>
<g>
</g>
<g>
</g>
<g>
</g>
<g>
</g>
<g>
</g>
<g>
</g>
<g>
</g>
</svg>
